<svg width="21" height="20" viewBox="0 0 21 20" fill="none" xmlns="http://www.w3.org/2000/svg">
<path d="M19.3421 16.4706C19.7679 16.4708 20.1772 16.6454 20.4854 16.9581C20.7935 17.2709 20.9768 17.6978 20.9973 18.1505C21.0177 18.6032 20.8738 19.0469 20.5953 19.3896C20.3168 19.7324 19.925 19.948 19.5013 19.9918L19.3421 20H1.65789C1.23213 19.9998 0.822764 19.8252 0.514625 19.5125C0.206487 19.1997 0.0231972 18.7728 0.00273634 18.3201C-0.0177246 17.8674 0.126212 17.4237 0.40472 17.0809C0.683228 16.7382 1.07496 16.5226 1.49874 16.4788L1.65789 16.4706H19.3421ZM19.3421 8.23529C19.7818 8.23529 20.2035 8.42122 20.5144 8.75216C20.8253 9.08311 21 9.53197 21 10C21 10.468 20.8253 10.9169 20.5144 11.2478C20.2035 11.5788 19.7818 11.7647 19.3421 11.7647H1.65789C1.21819 11.7647 0.796502 11.5788 0.485586 11.2478C0.174671 10.9169 0 10.468 0 10C0 9.53197 0.174671 9.08311 0.485586 8.75216C0.796502 8.42122 1.21819 8.23529 1.65789 8.23529H19.3421ZM19.3421 0C19.7818 0 20.2035 0.185924 20.5144 0.51687C20.8253 0.847817 21 1.29668 21 1.76471C21 2.23274 20.8253 2.6816 20.5144 3.01254C20.2035 3.34349 19.7818 3.52941 19.3421 3.52941H1.65789C1.21819 3.52941 0.796502 3.34349 0.485586 3.01254C0.174671 2.6816 0 2.23274 0 1.76471C0 1.29668 0.174671 0.847817 0.485586 0.51687C0.796502 0.185924 1.21819 0 1.65789 0H19.3421Z" fill="black"/>
</svg>
