<svg width="100" height="100" viewBox="0 0 100 100" fill="none" xmlns="http://www.w3.org/2000/svg">
<path d="M55.1428 0C60.7678 0.015 63.6228 0.045 66.0878 0.115L67.0578 0.15C68.1778 0.19 69.2828 0.24 70.6178 0.3C75.9378 0.55 79.5678 1.39 82.7528 2.625C86.0528 3.895 88.8328 5.615 91.6128 8.39C94.1563 10.8887 96.1238 13.9124 97.3778 17.25C98.6128 20.435 99.4528 24.065 99.7028 29.39C99.7628 30.72 99.8128 31.825 99.8528 32.95L99.8828 33.92C99.9578 36.38 99.9878 39.235 99.9978 44.86L100.003 48.59V55.14C100.015 58.787 99.9767 62.434 99.8878 66.08L99.8578 67.05C99.8178 68.175 99.7678 69.28 99.7078 70.61C99.4578 75.935 98.6078 79.56 97.3778 82.75C96.1238 86.0876 94.1563 89.1113 91.6128 91.61C89.1142 94.1535 86.0905 96.1209 82.7528 97.375C79.5678 98.61 75.9378 99.45 70.6178 99.7L67.0578 99.85L66.0878 99.88C63.6228 99.95 60.7678 99.985 55.1428 99.995L51.4128 100H44.8678C41.2191 100.013 37.5705 99.9745 33.9228 99.885L32.9528 99.855C31.7659 99.8101 30.5792 99.7584 29.3928 99.7C24.0728 99.45 20.4428 98.61 17.2528 97.375C13.917 96.1203 10.8951 94.1529 8.39784 91.61C5.85257 89.1118 3.88339 86.0881 2.62784 82.75C1.39284 79.565 0.552844 75.935 0.302844 70.61L0.152844 67.05L0.127844 66.08C0.0356747 62.4341 -0.00599647 58.7871 0.00284398 55.14V44.86C-0.0109955 41.213 0.0256751 37.566 0.112844 33.92L0.147844 32.95C0.187844 31.825 0.237844 30.72 0.297844 29.39C0.547844 24.065 1.38784 20.44 2.62284 17.25C3.88132 13.911 5.85396 10.8872 8.40284 8.39C10.8986 5.84774 13.9188 3.88037 17.2528 2.625C20.4428 1.39 24.0678 0.55 29.3928 0.3C30.7228 0.24 31.8328 0.19 32.9528 0.15L33.9228 0.12C37.5688 0.0311635 41.2158 -0.00717349 44.8628 0.00499964L55.1428 0ZM50.0028 25C43.3724 25 37.0136 27.6339 32.3252 32.3223C27.6368 37.0107 25.0028 43.3696 25.0028 50C25.0028 56.6304 27.6368 62.9893 32.3252 67.6777C37.0136 72.3661 43.3724 75 50.0028 75C56.6333 75 62.9921 72.3661 67.6805 67.6777C72.3689 62.9893 75.0028 56.6304 75.0028 50C75.0028 43.3696 72.3689 37.0107 67.6805 32.3223C62.9921 27.6339 56.6333 25 50.0028 25ZM50.0028 35C51.9727 34.9997 53.9233 35.3873 55.7433 36.1409C57.5633 36.8944 59.2171 37.999 60.6102 39.3916C62.0033 40.7843 63.1085 42.4377 63.8626 44.2574C64.6167 46.0772 65.005 48.0277 65.0053 49.9975C65.0057 51.9673 64.618 53.9179 63.8645 55.7379C63.111 57.558 62.0064 59.2117 60.6137 60.6048C59.2211 61.9979 57.5677 63.1031 55.7479 63.8572C53.9281 64.6114 51.9777 64.9997 50.0078 65C46.0296 65 42.2143 63.4197 39.4012 60.6066C36.5882 57.7936 35.0078 53.9782 35.0078 50C35.0078 46.0218 36.5882 42.2064 39.4012 39.3934C42.2143 36.5803 46.0296 35 50.0078 35M76.2578 17.5C74.6002 17.5 73.0105 18.1585 71.8384 19.3306C70.6663 20.5027 70.0078 22.0924 70.0078 23.75C70.0078 25.4076 70.6663 26.9973 71.8384 28.1694C73.0105 29.3415 74.6002 30 76.2578 30C77.9154 30 79.5052 29.3415 80.6773 28.1694C81.8494 26.9973 82.5078 25.4076 82.5078 23.75C82.5078 22.0924 81.8494 20.5027 80.6773 19.3306C79.5052 18.1585 77.9154 17.5 76.2578 17.5Z" fill="#8087F2"/>
</svg>
