<svg width="90" height="90" viewBox="0 0 90 90" fill="none" xmlns="http://www.w3.org/2000/svg">
<path d="M80 0C82.6522 0 85.1957 1.05357 87.0711 2.92893C88.9464 4.8043 90 7.34784 90 10V80C90 82.6522 88.9464 85.1957 87.0711 87.0711C85.1957 88.9464 82.6522 90 80 90H10C7.34784 90 4.8043 88.9464 2.92893 87.0711C1.05357 85.1957 0 82.6522 0 80V10C0 7.34784 1.05357 4.8043 2.92893 2.92893C4.8043 1.05357 7.34784 0 10 0H80ZM77.5 77.5V51C77.5 46.677 75.7827 42.531 72.7258 39.4742C69.669 36.4173 65.523 34.7 61.2 34.7C56.95 34.7 52 37.3 49.6 41.2V35.65H35.65V77.5H49.6V52.85C49.6 49 52.7 45.85 56.55 45.85C58.4065 45.85 60.187 46.5875 61.4997 47.9003C62.8125 49.213 63.55 50.9935 63.55 52.85V77.5H77.5ZM19.4 27.8C21.6278 27.8 23.7644 26.915 25.3397 25.3397C26.915 23.7644 27.8 21.6278 27.8 19.4C27.8 14.75 24.05 10.95 19.4 10.95C17.1589 10.95 15.0096 11.8403 13.4249 13.4249C11.8403 15.0096 10.95 17.1589 10.95 19.4C10.95 24.05 14.75 27.8 19.4 27.8ZM26.35 77.5V35.65H12.5V77.5H26.35Z" fill="#8087F2"/>
</svg>
